HIERARCHY
ROOT Hips
{
  OFFSET 68.7968 96.8644 2.6068
  CHANNELS 6 Xposition Yposition Zposition Zrotation Xrotation Yrotation
  JOINT spine
  {
    OFFSET 0 7.96568 0.458067
    CHANNELS 3 Zrotation Xrotation Yrotation
    JOINT spine1
    {
      OFFSET 0 10.2431 0
      CHANNELS 3 Zrotation Xrotation Yrotation
      JOINT spine2
      {
        OFFSET 0 9.81475 0
        CHANNELS 3 Zrotation Xrotation Yrotation
        JOINT Neck
        {
          OFFSET 0 25.1986 1.20138
          CHANNELS 3 Zrotation Xrotation Yrotation
          JOINT Head
          {
            OFFSET 0 7.61315 0
            CHANNELS 3 Zrotation Xrotation Yrotation
            End Site
            {
              OFFSET 0 18.4281 -6.07733
            }
          }
        }
        JOINT RightShoulder
        {
          OFFSET -4.1327 10.5992 -0.575451
          CHANNELS 3 Zrotation Xrotation Yrotation
          JOINT RightArm
          {
            OFFSET 0 13.9018 0
            CHANNELS 3 Zrotation Xrotation Yrotation
            JOINT RightArmRoll
            {
              OFFSET 0 7.01789 0
              CHANNELS 3 Zrotation Xrotation Yrotation
              JOINT RightForeArm
              {
                OFFSET 0 20.4406 0
                CHANNELS 3 Zrotation Xrotation Yrotation
                JOINT RightForeArmRoll
                {
                  OFFSET 0 7.87515 0
                  CHANNELS 3 Zrotation Xrotation Yrotation
                  JOINT RightHand
                  {
                    OFFSET 0 15.8037 0
                    CHANNELS 3 Zrotation Xrotation Yrotation
                    End Site
                    {
                      OFFSET 0 0 0
                    }
                  }
                }
              }
            }
          }
        }
        JOINT LeftShoulder
        {
          OFFSET 4.1327 10.5992 -0.575451
          CHANNELS 3 Zrotation Xrotation Yrotation
          JOINT LeftArm
          {
            OFFSET 0 13.9018 0
            CHANNELS 3 Zrotation Xrotation Yrotation
            JOINT LeftArmRoll
            {
              OFFSET 0 7.01789 0
              CHANNELS 3 Zrotation Xrotation Yrotation
              JOINT LeftForeArm
              {
                OFFSET 0 20.4406 0
                CHANNELS 3 Zrotation Xrotation Yrotation
                JOINT LeftForeArmRoll
                {
                  OFFSET 0 7.87516 0
                  CHANNELS 3 Zrotation Xrotation Yrotation
                  JOINT LeftHand
                  {
                    OFFSET 0 15.8037 0
                    CHANNELS 3 Zrotation Xrotation Yrotation
                    End Site
                    {
                      OFFSET 0 0 0
                    }
                  }
                }
              }
            }
          }
        }
      }
    }
  }
  JOINT RightUpLeg
  {
    OFFSET -7.06048 -1.2947 -1.0861
    CHANNELS 3 Zrotation Xrotation Yrotation
    JOINT RightUpLegRoll
    {
      OFFSET 0 18.5308 0
      CHANNELS 3 Zrotation Xrotation Yrotation
      JOINT RightLeg
      {
        OFFSET 0 -22.9476 0
        CHANNELS 3 Zrotation Xrotation Yrotation
        JOINT RightLegRoll
        {
          OFFSET 0 23.0226 0
          CHANNELS 3 Zrotation Xrotation Yrotation
          JOINT RightFoot
          {
            OFFSET 0 19.1625 0
            CHANNELS 3 Zrotation Xrotation Yrotation
            JOINT RightToeBase
            {
              OFFSET 0 16.0188 0
              CHANNELS 3 Zrotation Xrotation Yrotation
              End Site
              {
                OFFSET 0.00678979 7.75782 -0.894206
              }
            }
          }
        }
      }
    }
  }
  JOINT LeftUpLeg
  {
    OFFSET 7.06048 -1.2947 -1.0861
    CHANNELS 3 Zrotation Xrotation Yrotation
    JOINT LeftUpLegRoll
    {
      OFFSET 0 18.5309 0
      CHANNELS 3 Zrotation Xrotation Yrotation
      JOINT LeftLeg
      {
        OFFSET 0 22.9475 0
        CHANNELS 3 Zrotation Xrotation Yrotation
        JOINT LeftLegRoll
        {
          OFFSET 0 23.2355 0
          CHANNELS 3 Zrotation Xrotation Yrotation
          JOINT LeftFoot
          {
            OFFSET 0 18.9496 0
            CHANNELS 3 Zrotation Xrotation Yrotation
            JOINT LeftToeBase
            {
              OFFSET 0 16.0188 0
              CHANNELS 3 Zrotation Xrotation Yrotation
              End Site
              {
                OFFSET -0.0304289 7.75782 -0.894206
              }
            }
          }
        }
      }
    }
  }
}
MOTION
Frames: 8
Frame Time: 0.00208333
66.5498 92.7089 1.8278 4.81834 -1.7998 12.0217 -0.0150635 -0.660412 -0.166579 -0.030472 2.68207 -0.331339 -0.0265253 4.32713 -0.331105 -23.6016 -1.27393 -5.01573 19.196 12.6034 -8.88113 25.4978 -13.9502 -10.6245 30.4923 14.81 60.5535 2.08996e-005 -3.32151e-006 4.94001e-006 -9.4786 34.7654 3.76367 -4.92244e-006 -5.82978e-006 -3.00177 8.02911 -4.95117 0.697514 -41.9303 -6.47559 3.13001 -13.6706 35.7492 -84.1728 1.90833e-014 0 -1.27222e-014 17.6685 45.0412 -9.82665 2.81191e-006 -2.63022e-006 3.00058 -8.02888 -4.95084 -0.697432 155.857 4.41384 5.42703 180 7.01417e-015 178.46 -168.572 22.7027 176.18 -7.69384e-007 -5.43385e-006 -0.709631 -18.7476 64.6614 17.0992 7.9448 30.7286 1.73681 -165.226 12.7533 -1.63911 4.5067e-006 -1.99009e-005 -1.56054 8.57619 -28.8621 3.29039 5.06229e-006 -4.97035e-006 -0.41688 19.1805 67.3775 -19.0504 -8.11844 24.9775 3.73116 
66.5782 93.0536 1.81897 4.88584 -1.79577 12.0054 -0.0205958 -0.654288 -0.178186 -0.0415478 2.69433 -0.353894 -0.037343 4.3394 -0.353494 -23.6625 -1.77394 -5.07609 19.129 13.0381 -8.92579 25.9613 -13.8772 -10.5085 30.9189 14.7526 60.3691 2.08996e-005 -3.32151e-006 4.94001e-006 -9.50174 34.6073 3.74029 -4.92244e-006 -5.82978e-006 -3.00177 8.02911 -4.95117 0.697514 -42.1634 -6.56956 3.22206 -14.578 35.8101 -83.3116 9.54166e-015 1.74931e-014 -0 17.503 44.8774 -9.66187 2.81191e-006 -2.63022e-006 3.00059 -8.02888 -4.95084 -0.697432 155.753 4.28408 5.5444 180 7.01421e-015 178.47 -168.852 22.1775 176.33 -7.69384e-007 -5.43384e-006 -0.74632 -18.7167 64.5479 17.0199 8.01338 30.2091 1.20974 -165.331 12.545 -1.65045 4.5067e-006 -1.99009e-005 -1.54934 8.38321 -28.3934 3.1808 5.06229e-006 -4.97035e-006 -0.403271 19.1696 67.3795 -19.0517 -8.1186 24.9796 3.72915 
66.6301 93.3736 1.79333 4.95355 -1.79276 11.9866 -0.0263223 -0.647473 -0.189874 -0.0530045 2.70798 -0.376588 -0.0485404 4.35305 -0.376017 -23.7139 -2.29031 -5.13826 19.0509 13.4875 -8.96923 26.4311 -13.8036 -10.3924 31.3479 14.6959 60.1845 2.08996e-005 -3.32151e-006 4.94001e-006 -9.52399 34.4536 3.7171 -4.92244e-006 -5.82978e-006 -3.00177 8.02911 -4.95117 0.697514 -42.3874 -6.66648 3.31571 -15.4991 35.8566 -82.4326 9.54166e-015 -3.97569e-015 -3.18055e-015 17.3339 44.7003 -9.49229 2.81191e-006 -2.63022e-006 3.0006 -8.02888 -4.95084 -0.697432 155.651 4.15878 5.6641 180 7.01424e-015 178.48 -169.124 21.6639 176.478 -7.69387e-007 -5.43391e-006 -0.769562 -18.6912 64.4727 16.961 8.07422 29.6534 0.655126 -165.438 12.3354 -1.66034 4.5067e-006 -1.99009e-005 -1.53797 8.19534 -27.9269 3.07293 5.06229e-006 -4.97036e-006 -0.395741 19.1675 67.4026 -19.0688 -8.11965 24.9935 3.7159 
66.6302 93.7003 1.76246 5.0203 -1.78918 11.9651 -0.0320019 -0.640336 -0.201352 -0.0643598 2.72228 -0.398865 -0.0596414 4.36734 -0.398125 -23.7572 -2.821 -5.2022 18.9628 13.9488 -9.01145 26.9047 -13.73 -10.2769 31.7797 14.6398 59.9972 2.08996e-005 -3.32151e-006 4.94001e-006 -9.54389 34.3015 3.69322 -4.92244e-006 -5.82978e-006 -3.00177 8.02911 -4.95117 0.697514 -42.6041 -6.76475 3.40976 -16.4304 35.8886 -81.5392 -3.18055e-015 3.18055e-015 -3.18055e-015 17.1614 44.5116 -9.31874 2.81191e-006 -2.63022e-006 3.00061 -8.02888 -4.95084 -0.697432 155.555 4.03974 5.78462 180 7.01427e-015 178.49 -169.389 21.1626 176.623 -7.69393e-007 -5.43402e-006 -0.781819 -18.6693 64.4285 16.9185 8.12426 29.0746 0.0867047 -165.545 12.1263 -1.66966 4.5067e-006 -1.99009e-005 -1.52648 8.01181 -27.4623 2.96685 5.06229e-006 -4.97038e-006 -0.392973 19.1719 67.4418 -19.0979 -8.12137 25.0167 3.6938 
66.6707 94.0283 1.7506 5.08496 -1.78347 11.9408 -0.0373935 -0.633242 -0.212327 -0.0751332 2.73648 -0.420172 -0.0701716 4.38154 -0.41927 -23.7935 -3.36392 -5.26788 18.8657 14.419 -9.05246 27.3798 -13.6569 -10.163 32.2148 14.5836 59.8044 2.08996e-005 -3.32151e-006 4.94001e-006 -9.55999 34.1483 3.66779 -4.92244e-006 -5.82978e-006 -3.00178 8.02911 -4.95117 0.697514 -42.8158 -6.86275 3.50303 -17.3684 35.9063 -80.6351 1.27222e-014 -1.27222e-014 -9.54166e-015 16.9855 44.3133 -9.14201 2.81191e-006 -2.63022e-006 3.00062 -8.02888 -4.95084 -0.697432 155.466 3.92876 5.90445 180 7.0143e-015 178.498 -169.646 20.6741 176.764 -7.69401e-007 -5.43418e-006 -0.785551 -18.6491 64.4078 16.8886 8.16158 28.4858 -0.482388 -165.651 11.9198 -1.67928 4.5067e-006 -1.99009e-005 -1.51492 7.83182 -26.9993 2.86266 5.06229e-006 -4.97041e-006 -0.393653 19.1806 67.492 -19.1354 -8.12357 25.0467 3.66527 
66.6754 94.3492 1.69302 5.14638 -1.77404 11.9136 -0.042257 -0.626558 -0.222508 -0.0848456 2.74987 -0.439952 -0.0796579 4.39492 -0.438906 -23.8241 -3.91702 -5.33528 18.7609 14.8956 -9.09223 27.8541 -13.585 -10.0514 32.6537 14.5269 59.6038 2.08996e-005 -3.32151e-006 4.94001e-006 -9.57085 33.9914 3.63995 -4.92244e-006 -5.82978e-006 -3.00178 8.02911 -4.95117 0.697514 -43.0244 -6.95889 3.59433 -18.3097 35.9103 -79.7239 1.59028e-014 -2.3059e-014 -1.27222e-014 16.8063 44.1072 -8.96288 2.81191e-006 -2.63022e-006 3.00063 -8.02888 -4.95084 -0.697432 155.387 3.82761 6.0221 180 7.01432e-015 178.506 -169.893 20.199 176.9 -7.6941e-007 -5.43436e-006 -0.783221 -18.6292 64.4033 16.8675 8.18549 27.9006 -1.03962 -165.756 11.7175 -1.69008 4.5067e-006 -1.99009e-005 -1.50335 7.65459 -26.5377 2.76045 5.06229e-006 -4.97045e-006 -0.396465 19.1913 67.5483 -19.1777 -8.12604 25.0809 3.6327 
66.7212 94.6843 1.68352 5.20343 -1.75933 11.8831 -0.0463521 -0.62065 -0.231602 -0.0930196 2.7617 -0.457649 -0.0876292 4.40675 -0.456483 -23.8502 -4.47823 -5.40435 18.6493 15.3755 -9.13072 28.3252 -13.5151 -9.94306 33.0967 14.4691 59.3926 2.08996e-005 -3.32151e-006 4.94001e-006 -9.57508 33.8281 3.60886 -4.92244e-006 -5.82978e-006 -3.00178 8.02911 -4.95117 0.697514 -43.2321 -7.05157 3.68247 -19.2509 35.9015 -78.8091 6.36111e-015 -1.82882e-014 -1.59028e-014 16.6236 43.8951 -8.78209 2.81191e-006 -2.63022e-006 3.00064 -8.02888 -4.95084 -0.697432 155.318 3.73807 6.13605 180 7.01435e-015 178.513 -170.132 19.7378 177.032 -7.69419e-007 -5.43455e-006 -0.777289 -18.6081 64.4074 16.8516 8.19644 27.3324 -1.57298 -165.858 11.5214 -1.7029 4.5067e-006 -1.99009e-005 -1.49183 7.47933 -26.0771 2.6603 5.06229e-006 -4.97048e-006 -0.400093 19.2014 67.6056 -19.2208 -8.12858 25.1167 3.5985 
66.7376 95.0113 1.68615 5.25496 -1.73774 11.8493 -0.0494393 -0.615884 -0.239319 -0.0991787 2.77124 -0.472708 -0.0936149 4.41629 -0.471453 -23.8729 -5.04548 -5.47504 18.532 15.856 -9.16789 28.7908 -13.4477 -9.83875 33.5443 14.4096 59.1685 2.08996e-005 -3.32151e-006 4.94001e-006 -9.57127 33.6557 3.5737 -4.92244e-006 -5.82978e-006 -3.00178 8.02911 -4.95117 0.697514 -43.4409 -7.13919 3.76625 -20.1886 35.8811 -77.8943 -3.18055e-015 1.11319e-014 6.36111e-015 16.4374 43.679 -8.60032 2.81191e-006 -2.63022e-006 3.00065 -8.02888 -4.95084 -0.697432 155.263 3.66195 6.24482 180 7.01437e-015 178.519 -170.36 19.2913 177.157 -7.69428e-007 -5.43473e-006 -0.770216 -18.5841 64.413 16.8374 8.19594 26.7952 -2.07092 -165.955 11.3334 -1.71861 4.5067e-006 -1.99009e-005 -1.4804 7.30527 -25.6172 2.56231 5.06229e-006 -4.97052e-006 -0.403223 19.2088 67.6589 -19.261 -8.13102 25.1517 3.56509 
